<!-- Generated by IcoMoon.io -->
<svg version="1.1" xmlns="http://www.w3.org/2000/svg" width="32" height="32" viewBox="0 0 32 32">
<path fill="#444" d="M5.719 26.906q-4.156-0.031-4.375-3.594v-0.094q0.031-2.156 2.219-3.375 0.188-1.188 0.781-2.094 1.25-1.844 3.969-2-0.156-0.281-0.281-0.875-0.219-1.563 0.375-2.781 0.969-1.906 3.375-2.531 2.406-3.844 6.969-3.875 3.25 0 5.313 2 1.031 1 1.594 1.906 1.656 0.063 2.969 1.219 1.063 1.063 1.313 2.75 0.125 1.969-0.969 3.313l-0.031 0.031q0 0.031 0.031 0.031 1.656 1.781 1.656 3.844 0 4.219-4.094 5.875-0.875 0.219-2.5 0.25h-18.313z"></path>
</svg>
