<!-- Generated by IcoMoon.io -->
<svg version="1.1" xmlns="http://www.w3.org/2000/svg" width="32" height="32" viewBox="0 0 32 32">
<path fill="#444" d="M19.75 25.656q1.875 2.594 1.781 3.313 0 0.688-0.5 1.156t-1.281 0.469q-0.75 0-1.25-0.469-0.531-0.469-0.531-1.156-0.094-0.719 1.781-3.313zM1.031 12.75q-0.188-0.188-0.188-0.469 0-0.25 0.188-0.438t0.438-0.188h2.875q0.25 0 0.406 0.188 0.188 0.188 0.188 0.438t-0.156 0.438q-0.156 0.219-0.406 0.219h-2.906q-0.25 0-0.438-0.188zM20.688 4.719q0 0.25-0.156 0.406l-1.688 1.75q-0.219 0.156-0.469 0.156-0.281 0-0.469-0.188-0.156-0.188-0.156-0.438 0-0.281 0.156-0.438l1.719-1.719q0.188-0.188 0.438-0.188 0.281 0 0.469 0.188 0.156 0.188 0.156 0.469zM4.375 4.688q0-0.25 0.188-0.438 0.156-0.188 0.406-0.188 0.281 0 0.469 0.188l1.719 1.719q0.156 0.156 0.156 0.406 0 0.281-0.156 0.469t-0.438 0.188-0.469-0.156l-1.688-1.75q-0.188-0.156-0.188-0.438zM12.063 0.75q0.188-0.188 0.438-0.188 0.281 0 0.469 0.188t0.188 0.438v2.844q0 0.25-0.188 0.438t-0.438 0.188-0.438-0.156q-0.188-0.188-0.188-0.438v-2.875q0-0.25 0.156-0.438zM4.375 19.875q0-0.25 0.188-0.438l1.688-1.719q0.188-0.156 0.469-0.156t0.438 0.188q0.156 0.156 0.156 0.406 0 0.281-0.156 0.469l-1.719 1.719q-0.188 0.156-0.438 0.156-0.281 0-0.438-0.156-0.188-0.188-0.188-0.469zM9.531 17.75l-0.094-0.031q-0.281-0.156-0.531-0.344-0.438-0.313-0.813-0.688-1.813-1.781-1.813-4.406 0-2.594 1.781-4.375 1.813-1.813 4.406-1.813t4.406 1.781q0.156 0.156 0.313 0.344l0.094 0.094q1.781-1.906 4.594-1.938 2 0 3.469 0.969 0.594 0.406 1.063 0.906 0.625 0.625 0.938 1.156 1.281 0.063 2.313 1 0.875 0.844 1.063 2.188 0.094 1.531-0.781 2.594l0.031 0.063q1.219 1.344 1.219 2.938 0 3.313-3.219 4.656-0.688 0.156-1.969 0.188h-14.313q-3.281-0.031-3.438-2.875v-0.063q0.031-1.469 1.281-2.344zM16.375 9.375l-0.094-0.156q-0.188-0.25-0.344-0.406-1.406-1.375-3.5-1.375-2.031 0-3.438 1.375-1.406 1.406-1.406 3.469 0 2.031 1.406 3.438 0.344 0.344 0.719 0.625l0.438 0.25h0.031q0.156-0.406 0.406-0.813 0.969-1.469 3.063-1.625-0.156-0.406-0.188-0.719-0.188-1.063 0.281-2.031 0.75-1.5 2.625-2.031zM9.969 18.906q-0.438 0.5-0.438 1.219 0.063 0.656 0.5 1.125 0.594 0.5 1.25 0.5h14.969q2.5 0 3.438-2.563l0.125-0.813q0.031-1.969-1.844-3-0.781-0.375-1.656-0.406-1.719 0-2.938 1.656-0.469 0.406-0.906 0.094-0.406-0.344-0.188-0.906 0.844-1.438 2.75-2.094-0.563-0.875-1.844-1.719-1.219-0.719-2.531-0.719h-0.625q-3.156 0.281-4.656 2.594-0.188 0.344-0.375 0.75-0.406 1.031-0.469 2.094-0.063 0.75-0.75 0.75-0.594-0.031-0.594-0.844 0.031-0.719 0.125-1.156-0.719 0-1.281 0.5-0.375 0.344-0.5 0.625-0.375 0.719-0.25 1.688-0.906 0.188-1.313 0.625zM14.938 12.375q0.75-0.969 2.344-1.781 1.406-0.594 3.219-0.656 2.594 0 4.719 1.844 0.875 0.875 1.469 1.813 1.219 0.094 2.25 0.75 0.375-0.438 0.5-0.906 0.125-0.656 0.031-1.094-0.313-1.188-1.406-1.594-0.406-0.188-0.969-0.188-0.594 0.031-0.969 0.25-0.531 0.406-0.938 0.031-0.313-0.375 0-0.781 0.344-0.344 0.781-0.5-0.406-0.656-1.25-1.219-1.094-0.781-2.906-0.781-1.563 0.063-2.875 0.906-1 0.719-1.563 1.875-1.5 0.25-2.125 1.063-0.531 0.656-0.531 1.281 0.094-0.156 0.219-0.313z"></path>
</svg>
