<!-- Generated by IcoMoon.io -->
<svg version="1.1" xmlns="http://www.w3.org/2000/svg" width="32" height="32" viewBox="0 0 32 32">
<path fill="#444" d="M19.719 25.656q1.875 2.594 1.781 3.313 0 0.688-0.5 1.156t-1.281 0.469q-0.75 0-1.25-0.469-0.531-0.469-0.531-1.156-0.094-0.719 1.781-3.313zM14.906 12.375q0.75-0.969 2.344-1.781 1.406-0.594 3.219-0.656 2.594 0 4.719 1.844 0.875 0.875 1.469 1.813 1.219 0.094 2.25 0.75 0.375-0.438 0.5-0.906 0.125-0.656 0.031-1.094-0.313-1.188-1.406-1.594-0.406-0.188-0.969-0.188-0.594 0.031-0.969 0.25-0.531 0.406-0.938 0.031-0.313-0.375 0-0.781 0.344-0.344 0.75-0.469-0.438-0.75-1.094-1.188-1.219-0.844-3.031-0.844-1.563 0.063-2.875 0.906-1 0.719-1.563 1.844-1.5 0.281-2.125 1.094-0.531 0.656-0.531 1.281 0.094-0.156 0.219-0.313zM9.938 18.906q-0.438 0.5-0.438 1.219 0.063 0.656 0.5 1.125 0.594 0.5 1.25 0.5h14.969q2.5 0 3.438-2.563l0.125-0.813q0.031-1.969-1.844-3-0.781-0.375-1.656-0.406-1.719 0-2.938 1.656-0.469 0.406-0.906 0.094-0.406-0.344-0.188-0.906 0.844-1.438 2.75-2.094-0.563-0.875-1.844-1.719-1.219-0.719-2.531-0.719h-0.625q-3.156 0.281-4.656 2.594-0.188 0.344-0.375 0.75-0.406 1.031-0.469 2.094-0.063 0.75-0.75 0.75-0.594-0.031-0.594-0.844 0.031-0.719 0.125-1.156-0.719 0-1.281 0.5-0.375 0.344-0.5 0.625-0.375 0.719-0.25 1.688-0.906 0.188-1.313 0.625zM11.719 14.688q0.813-0.438 1.906-0.531-0.156-0.406-0.188-0.719-0.188-1.063 0.281-2.031 0.75-1.5 2.625-2.031l0.125-0.031q0.344-0.563 0.781-1.031 0.219-0.25 0.469-0.469v-0.063q-0.281-2.156-1.75-3.656-0.469-0.438-0.969-0.781 0.031 0.344 0.031 0.656 0 3.313-2.25 5.563-2.281 2.281-5.563 2.281-0.438 0-0.906-0.031 0.375 0.531 0.875 1.063 1.781 1.781 4.438 1.813h0.094zM10.406 16.031h-0.031q-2.406-0.344-4.156-2.094-1.094-1.094-1.469-2.281-0.156-0.469-0.156-0.781 0-0.25 0.094-0.406 0.125-0.344 0.5-0.438 0.344-0.094 0.625 0.094l0.25 0.094q0.719 0.219 1.563 0.219 2.5 0 4.188-1.719 1.719-1.719 1.719-4.219 0-0.719-0.125-1.344l-0.031-0.094-0.094-0.344-0.031-0.313q-0.031-0.375 0.281-0.656 0.219-0.125 0.438-0.156h0.094q0.313 0 0.656 0.156 1.375 0.563 2.188 1.5 1.594 1.563 2.031 3.719v0.063q1.281-0.625 2.906-0.656 2 0 3.469 0.969 1 0.625 2 2.063 1.281 0.063 2.313 1 0.875 0.844 1.063 2.188 0.094 1.531-0.781 2.594l0.031 0.063q1.219 1.344 1.219 2.938 0 3.313-3.219 4.656-0.688 0.156-1.969 0.188h-14.313q-3.281-0.031-3.438-2.875v-0.063q0.031-1.469 1.281-2.344 0.188-0.156 0.5-0.344 0.031-0.344 0.156-0.813 0.094-0.281 0.25-0.563z"></path>
</svg>
