<!-- Generated by IcoMoon.io -->
<svg version="1.1" xmlns="http://www.w3.org/2000/svg" width="32" height="32" viewBox="0 0 32 32">
<path fill="#444" d="M16 22.031q2.125 2.938 2.031 3.719 0 0.813-0.563 1.344-0.625 0.531-1.469 0.531t-1.438-0.531-0.594-1.344q-0.094-0.781 2.031-3.719zM10.438 7.094q0.938-1.219 2.75-2.125 1.594-0.688 3.625-0.75 3 0 5.375 2.094 0.813 0.813 1.75 2.156 1.281 0.031 2.531 0.781 0.375-0.5 0.5-1.031 0.156-0.844 0.031-1.344-0.344-1.344-1.563-1.813-0.469-0.219-1.125-0.219-0.656 0.031-1.094 0.313-0.594 0.438-1.063 0.031-0.344-0.438 0-0.906 0.406-0.375 0.875-0.531-0.594-0.875-1.5-1.5-1.188-0.813-3.063-0.875-0.375 0-0.75 0.031-1.5 0.219-2.688 1.031-1.125 0.844-1.875 2.188-1.563 0.219-2.313 1.188-0.656 0.844-0.563 1.5 0.063-0.094 0.156-0.219zM10.844 8.844q-0.719 1.438-0.813 3-0.063 0.813-0.781 0.781-0.625-0.031-0.625-0.875 0.063-0.813 0.188-1.406-0.969 0.031-1.625 0.625-1.063 1.031-0.875 2.594-0.969 0.219-1.438 0.75-0.531 0.594-0.531 1.406 0.094 0.781 0.594 1.344 0.719 0.594 1.469 0.594h17.031q2.875 0 3.969-3l0.125-0.906q0.031-2.281-2.125-3.469-0.906-0.438-1.906-0.469-1.969 0-3.406 1.906-0.5 0.406-0.906 0.063-0.438-0.344-0.219-0.938 0.938-1.594 3.156-2.344-0.656-1.094-2.125-2.063-1.438-0.844-2.938-0.844h-0.688q-2.906 0.281-4.563 1.969-0.5 0.531-0.969 1.281zM8.969 8.25q-0.188-1.375 0.344-2.469 0.844-1.688 2.969-2.219 2.125-3.406 6.156-3.438 2.25 0 3.906 1.094 0.625 0.438 1.219 1.031 0.688 0.688 1.063 1.313 1.438 0.063 2.594 1.125 1 0.938 1.219 2.469 0.094 1.75-0.906 2.938l0.063 0.063q1.375 1.531 1.375 3.344 0 3.75-3.656 5.25-0.781 0.188-2.219 0.219h-16.188q-3.719-0.031-3.906-3.25v-0.063q0.031-1.969 1.969-3 0.156-1.063 0.688-1.875 1.125-1.656 3.531-1.781-0.094-0.25-0.219-0.75z"></path>
</svg>
